<svg width="686" height="686" viewBox="0 0 1 1" fill="none" xmlns="http://www.w3.org/2000/svg">
<path d="M0.579009 0.740297C0.566541 0.741857 0.55386 0.742744 0.540968 0.742744C0.473568 0.742744 0.411319 0.720716 0.360962 0.683533V0.819974H0.55135C0.566625 0.819974 0.579009 0.807591 0.579009 0.792314V0.740297Z" fill="#363B48" fill-opacity="0.632254"/>
<path d="M0.360962 0.665512V0.683532C0.411319 0.720715 0.473568 0.742743 0.540968 0.742743C0.55386 0.742743 0.566541 0.741856 0.579009 0.740296V0.693172C0.579008 0.677896 0.566625 0.665512 0.55135 0.665512H0.360962Z" fill="white"/>
<path d="M0.339085 0.665512C0.346127 0.671812 0.353345 0.677909 0.360959 0.683532V0.665512H0.339085Z" fill="#363B48" fill-opacity="0.557885"/>
<path d="M0.339085 0.665512H0.29793C0.282654 0.665512 0.270271 0.677896 0.270271 0.693172V0.792314C0.270271 0.807589 0.282654 0.819973 0.29793 0.819973H0.36096V0.683532C0.353345 0.677909 0.346128 0.671812 0.339085 0.665512Z" fill="white"/>
<path d="M0.360962 0.266388V0.420886H0.436709C0.451985 0.420886 0.464369 0.408503 0.464369 0.393226V0.294048C0.464369 0.278771 0.451985 0.266388 0.436709 0.266388H0.360962Z" fill="white"/>
<path d="M0.239201 0.469269C0.244867 0.527049 0.266638 0.580075 0.300117 0.62373H0.36096V0.469269H0.239201Z" fill="#363B48" fill-opacity="0.611188"/>
<path d="M0.540969 0.135986C0.437717 0.135986 0.346568 0.187592 0.291778 0.266384H0.360962V0.420882H0.23824C0.237872 0.426994 0.23761 0.43314 0.23761 0.439345C0.23761 0.449457 0.238237 0.459409 0.239203 0.469266H0.360962V0.623727H0.30012C0.311741 0.638881 0.324872 0.652797 0.339088 0.665512H0.360962H0.55135C0.566626 0.665512 0.579009 0.677896 0.57901 0.693171V0.740296C0.728596 0.721571 0.844365 0.594007 0.844366 0.439345C0.844366 0.271793 0.708522 0.135986 0.540969 0.135986Z" fill="#969940" fill-opacity="0.80022"/>
<path d="M0.300118 0.62373C0.266639 0.580075 0.244868 0.52705 0.239201 0.469269H0.23427C0.218995 0.469269 0.206612 0.481652 0.206612 0.496928V0.59607C0.206612 0.611346 0.218995 0.62373 0.23427 0.62373H0.300118Z" fill="white"/>
<path d="M0.360962 0.469269V0.62373H0.48769C0.502965 0.62373 0.515348 0.611346 0.515348 0.59607V0.496928C0.515348 0.481652 0.502965 0.469269 0.48769 0.469269H0.360962Z" fill="white"/>
<path d="M0.291778 0.266388C0.26095 0.310722 0.241678 0.363655 0.238239 0.420886H0.360962V0.266388H0.291778Z" fill="#363B48" fill-opacity="0.633934"/>
<path d="M0.238238 0.420886C0.241677 0.363655 0.260949 0.310722 0.291777 0.266388H0.183291C0.168015 0.266388 0.155632 0.278771 0.155632 0.294048V0.393226C0.155632 0.408503 0.168015 0.420886 0.183291 0.420886H0.238238Z" fill="white"/>
<path d="M0.360962 0.266388V0.420886H0.436709C0.451985 0.420886 0.464369 0.408503 0.464369 0.393226V0.294048C0.464369 0.278771 0.451985 0.266388 0.436709 0.266388H0.360962Z" fill="white"/>
</svg>
